<?xml version="1.0" encoding="UTF-8"?>
<svg version="1.1" xmlns="http://www.w3.org/2000/svg" width="2384" height="2400">
<path d="M0 0 C0.45366005 1.74484633 0.90732008 3.48969267 1.36098003 5.23453903 C1.77991553 6.84582908 2.19885131 8.45711906 2.61778736 10.06840897 C3.84760013 14.79845251 5.07740704 19.52849758 6.3072052 24.25854492 C8.88025954 34.15499726 11.45335899 44.05143787 14.02662945 53.94783401 C15.54251889 59.77771583 17.05837669 65.60760587 18.57421875 71.4375 C18.88200823 72.62124962 19.18979771 73.80499924 19.50691414 75.02462006 C23.63608687 90.90553004 27.76382458 106.78681218 31.89014053 122.66846466 C34.32223511 132.02906962 36.75477021 141.3895601 39.1875 150.75 C39.45675293 151.78602859 39.72600586 152.82205719 40.00341797 153.88948059 C45.90902725 176.61222817 51.82005516 199.33352484 57.76171875 222.046875 C57.99441404 222.93640617 58.22710934 223.82593735 58.466856 224.74242401 C60.33538904 231.88485571 62.20442672 239.02715536 64.07360458 246.16941833 C72.73060645 279.24974624 81.32012275 312.34735377 89.89339447 345.44947052 C96.1407701 369.57058819 102.38915091 393.69140015 108.68428802 417.80010605 C109.46189425 420.77842919 110.2389247 423.75690216 111.01593018 426.73538208 C113.45861125 436.09381005 115.91368113 445.44871918 118.39355469 454.79736328 C119.31060843 458.26038281 120.22620971 461.72378288 121.140625 465.1875 C121.46853153 466.42878977 121.46853153 466.42878977 121.80306244 467.6951561 C124.56894329 478.19259702 127.11395662 488.70490284 129.421875 499.3125 C130.15008715 502.53288631 130.88289895 505.7521913 131.61694336 508.97125244 C132.37807078 512.46244383 133.01980517 515.97037786 133.61437988 519.49362183 C135.15563319 525.0239587 136.56769831 529.5708345 141.75115567 532.57945764 C143.27923677 533.34892202 144.82056858 534.09244374 146.3718462 534.81400108 C147.21160371 535.22964371 148.05136123 535.64528634 148.91656594 536.0735242 C150.70159416 536.95538731 152.4916151 537.82720638 154.28614117 538.68957779 C157.78224118 540.37771538 161.24052612 542.13610268 164.70176582 543.89430628 C169.36467041 546.25782298 174.04510335 548.58630082 178.72233582 550.92129517 C180.85071686 551.98570425 182.97900982 553.05028949 185.10722333 554.11503351 C190.29695876 556.71089418 195.48760842 559.30491955 200.67866624 561.89813462 C206.90715729 565.00973874 213.13446498 568.123708 219.36174044 571.23774395 C230.85009251 576.98257386 242.33936754 582.72555552 253.82918358 588.46745682 C265.19320374 594.14650077 276.55680441 599.82638273 287.91985512 605.50736618 C288.62835862 605.86158356 289.33686211 606.21580094 290.06683542 606.58075218 C293.66547408 608.37990233 297.26410534 610.17906727 300.86273376 611.97823791 C326.30213838 624.69689211 351.74246837 637.41369429 377.18334961 650.12939453 C401.88727201 662.476758 426.59077082 674.82496831 451.29370117 687.17431641 C452.0561588 687.55547946 452.81861643 687.93664251 453.60417884 688.32935596 C461.26161462 692.15741455 468.91904184 695.98549026 476.57646279 699.81357851 C492.17326549 707.610712 507.77012529 715.40773127 523.36701965 723.2046814 C524.44252238 723.74232979 524.44252238 723.74232979 525.53975244 724.29083977 C573.35887783 748.19580796 621.17933808 772.09810573 669 796 C663.54217467 801.52285753 663.54217467 801.52285753 660.609375 803.2890625 C659.99199463 803.66691895 659.37461426 804.04477539 658.73852539 804.43408203 C658.08231201 804.82708496 657.42609863 805.22008789 656.75 805.625 C655.30522914 806.50917527 653.86124259 807.39463319 652.41796875 808.28125 C651.6811084 808.73242188 650.94424805 809.18359375 650.18505859 809.6484375 C646.77748716 811.75618225 643.41967075 813.93817797 640.0625 816.125 C632.95896373 820.74217338 625.82722479 825.31400441 618.6875 829.875 C611.10548146 834.72044147 603.53752647 839.58562495 596 844.5 C587.39258913 850.1119266 578.74219304 855.65507139 570.08398438 861.18823242 C561.36807652 866.75964878 552.67755418 872.36909706 544 878 C533.09966392 885.07327585 522.16884665 892.09735064 511.22070312 899.09643555 C504.64168756 903.30407308 498.07581357 907.5308959 491.5246582 911.78173828 C485.26299962 915.84006777 478.97522458 919.85721209 472.6875 923.875 C464.30014229 929.23526578 455.93641098 934.62929348 447.59838867 940.06591797 C439.85386496 945.10918774 432.06574567 950.08345701 424.27734375 955.05859375 C417.83326667 959.17805897 411.40669256 963.32265669 405 967.5 C396.38682039 973.1157264 387.73073601 978.66280587 379.06640625 984.19921875 C373.19968302 987.9490086 367.3408379 991.71002216 361.5 995.5 C354.58197805 999.98893641 347.63671375 1004.43452767 340.6875 1008.875 C332.30014229 1014.23526578 323.93641098 1019.62929348 315.59838867 1025.06591797 C307.85386496 1030.10918774 300.06574567 1035.08345701 292.27734375 1040.05859375 C285.83326667 1044.17805897 279.40669256 1048.32265669 273 1052.5 C264.3948198 1058.11051085 255.74678146 1063.65244597 247.09057617 1069.18383789 C240.98701178 1073.08510959 234.8917385 1076.99843042 228.8125 1080.9375 C228.14508789 1081.36925537 227.47767578 1081.80101074 226.79003906 1082.24584961 C223.49457826 1084.37871318 220.20486775 1086.5198654 216.921875 1088.671875 C215.63543378 1089.51044291 214.34897621 1090.34898576 213.0625 1091.1875 C212.47637939 1091.57478271 211.89025879 1091.96206543 211.28637695 1092.36108398 C207.22589657 1095 207.22589657 1095 205 1095 C205.01243544 1096.87484222 205.01243544 1096.87484222 205.02512211 1098.78756005 C205.08601847 1112.18504187 204.76880057 1125.54394986 204.28541565 1138.93162537 C204.20744553 1141.16715318 204.12979769 1143.40269226 204.05244011 1145.63824135 C203.84103947 1151.72073537 203.62509631 1157.80306056 203.40834224 1163.88536584 C203.1986457 1169.79006654 202.99244478 1175.69488908 202.78612021 1181.59970834 C202.33852002 1194.40569865 201.88677066 1207.21153999 201.43325292 1220.01732195 C201.03652607 1231.22001867 200.64128353 1242.4227666 200.24748039 1253.62556648 C200.2081872 1254.74329446 200.2081872 1254.74329446 200.1681002 1255.88360279 C200.06175068 1258.90887904 199.95540881 1261.93415555 199.84907792 1264.95943245 C198.85331515 1293.28995314 197.85344844 1321.62032764 196.8515854 1349.95063319 C195.96240496 1375.09515671 195.07636344 1400.23978889 194.19311523 1425.38452148 C193.96675687 1431.82849635 193.74039654 1438.27247115 193.51400852 1444.71644497 C193.48613351 1445.50989276 193.45825851 1446.30334055 193.4295388 1447.12083221 C192.6901121 1468.16696736 191.94829223 1489.21301814 191.20571464 1510.25904232 C191.12579151 1512.52427081 191.04586883 1514.78949932 190.96594704 1517.05472785 C190.91293448 1518.55725127 190.85992005 1520.05977462 190.80690375 1521.5622979 C190.43795137 1532.0192461 190.06992565 1542.47622654 189.7025402 1552.9332299 C189.22918665 1566.40637518 188.75418008 1579.87946045 188.27627534 1593.35244512 C188.04603331 1599.84526115 187.81658717 1606.33810263 187.5893383 1612.83102417 C187.38114104 1618.77887383 187.1705888 1624.72663537 186.9581871 1630.67433632 C186.88192106 1632.82128798 186.80649886 1634.96826981 186.73202486 1637.11528438 C186.35061999 1648.09668904 185.90573531 1659.04692271 185 1670 C176.25417836 1673.12800328 167.27607199 1675.31206105 158.28125 1677.5859375 C156.50009856 1678.03893875 154.71903381 1678.49228096 152.93804932 1678.94593811 C149.12494945 1679.91668949 145.31138442 1680.88558264 141.49743652 1681.85299683 C131.2409755 1684.45491514 120.98779431 1687.06972009 110.734375 1689.68359375 C109.68915932 1689.94993937 108.64394363 1690.21628498 107.56705475 1690.49070168 C87.76071744 1695.53849439 67.97305847 1700.65624704 48.19204712 1705.80225372 C17.14876508 1713.87749895 -13.92067601 1721.84624672 -45.00413513 1729.76536179 C-73.18642061 1736.94568071 -101.35346531 1744.1807993 -129.5 1751.5 C-159.64705226 1759.33941357 -189.81951977 1767.07527952 -220.00494385 1774.76556396 C-248.1869631 1781.94580205 -276.35373435 1789.18086926 -304.5 1796.5 C-333.64666008 1804.07927245 -362.81624308 1811.56487098 -392 1819 C-421.26696862 1826.45637421 -450.51992176 1833.96276619 -479.75 1841.5625 C-509.1015218 1849.19380878 -538.47487897 1856.73591735 -567.86178589 1864.22977448 C-595.34072609 1871.23743629 -622.80407635 1878.3016411 -650.25 1885.4375 C-680.48021166 1893.29726554 -710.73576704 1901.05390699 -741.00413513 1908.76536179 C-769.18642061 1915.94568071 -797.35346531 1923.1807993 -825.5 1930.5 C-855.64705226 1938.33941357 -885.81951977 1946.07527952 -916.00494385 1953.76556396 C-944.1869631 1960.94580205 -972.35373435 1968.18086926 -1000.5 1975.5 C-1029.64666008 1983.07927245 -1058.81624308 1990.56487098 -1088 1998 C-1117.26696862 2005.45637421 -1146.51992176 2012.96276619 -1175.75 2020.5625 C-1206.02499207 2028.43390832 -1236.32285316 2036.21219458 -1266.63580322 2043.93612671 C-1287.57446237 2049.27163303 -1308.50465713 2054.63678705 -1329.4140625 2060.0859375 C-1331.3166233 2060.58138576 -1333.21919079 2061.07680836 -1335.12176514 2061.57220459 C-1343.25829263 2063.69143682 -1351.39408764 2065.81331947 -1359.52671242 2067.94748497 C-1362.80504062 2068.80679656 -1366.08440413 2069.66210528 -1369.36402512 2070.51646805 C-1370.87377263 2070.91078107 -1372.38305008 2071.30689915 -1373.89180374 2071.70499802 C-1375.9548428 2072.24922718 -1378.01942863 2072.78716751 -1380.08447266 2073.32373047 C-1381.80907211 2073.7759346 -1381.80907211 2073.7759346 -1383.56851196 2074.23727417 C-1387.38306823 2075.08514558 -1391.1176928 2075.56992395 -1395 2076 C-1389.60119864 2051.5001756 -1384.05213714 2027.03788852 -1378.39938951 2002.59549594 C-1377.30841876 1997.87658806 -1376.21922694 1993.15726953 -1375.12980652 1988.43800354 C-1373.05610285 1979.45606019 -1370.98092243 1970.47445875 -1368.90515774 1961.49299151 C-1366.62252056 1951.61614822 -1364.34140509 1941.73895375 -1362.0604955 1931.86171138 C-1358.6539718 1917.11018246 -1355.24682578 1902.35879739 -1351.83907223 1887.60755253 C-1337.06093588 1823.63693336 -1322.30472193 1759.66128392 -1307.57300347 1695.67995983 C-1302.92324904 1675.48565548 -1298.27253096 1655.29157307 -1293.62109375 1635.09765625 C-1293.39600742 1634.1204564 -1293.17092109 1633.14325654 -1292.93901396 1632.13644457 C-1286.55996758 1604.44254103 -1280.17627659 1576.74971345 -1273.78515625 1549.05859375 C-1273.60197373 1548.26490985 -1273.41879122 1547.47122595 -1273.23005772 1546.65349102 C-1270.48705501 1534.76891325 -1267.74357005 1522.88444681 -1265 1511 C-1262.05572767 1498.2461542 -1259.1115935 1485.49227653 -1256.16796875 1472.73828125 C-1255.89212716 1471.54312818 -1255.89212716 1471.54312818 -1255.61071301 1470.3238306 C-1245.8306243 1427.94828336 -1236.07176892 1385.56784595 -1226.3125 1343.1875 C-1222.84002627 1328.10803088 -1219.36747576 1313.02857945 -1215.89453125 1297.94921875 C-1215.68283185 1297.03002891 -1215.47113244 1296.11083907 -1215.2530179 1295.16379499 C-1206.51495969 1257.22401517 -1197.76202967 1219.28767701 -1189.00421238 1181.35245419 C-1180.36261629 1143.9205611 -1171.72748053 1106.48719082 -1163.10546875 1069.05078125 C-1162.8936485 1068.13106773 -1162.68182824 1067.21135421 -1162.46358919 1066.26377058 C-1158.98543999 1051.1616811 -1155.50771544 1036.05949382 -1152.03001022 1020.95730209 C-1142.30453525 978.72378305 -1132.57842437 936.49041626 -1122.83203125 894.26171875 C-1122.64815668 893.46503595 -1122.46428211 892.66835316 -1122.27483559 891.84752846 C-1119.33410518 879.10625078 -1116.39281947 866.3651013 -1113.45148373 853.62396336 C-1110.6900587 841.6621278 -1107.92879499 829.70025502 -1105.16796875 817.73828125 C-1104.98412439 816.94172937 -1104.80028004 816.1451775 -1104.61086464 815.32448769 C-1094.83072528 772.94872144 -1085.07181936 730.568065 -1075.3125 688.1875 C-1071.84002627 673.10803088 -1068.36747576 658.02857945 -1064.89453125 642.94921875 C-1064.68283185 642.03002891 -1064.47113244 641.11083907 -1064.2530179 640.16379499 C-1055.84358271 603.65086366 -1047.42065159 567.14105628 -1038.99230289 530.63248682 C-1026.64897058 477.16541652 -1014.32152853 423.6946958 -1002.0041362 370.22164345 C-1000.41465741 363.32131954 -998.82503512 356.42102869 -997.23535156 349.52075195 C-995.08886966 340.20353895 -992.94275778 330.88624076 -990.79689217 321.5688858 C-990.00963274 318.15063999 -989.22225196 314.73242217 -988.43475151 311.31423187 C-983.26668935 288.88142273 -978.12206801 266.44335697 -973 244 C-968.06827572 243.87611028 -963.60011756 244.29343792 -958.75941467 245.22488403 C-957.71296947 245.42347414 -957.71296947 245.42347414 -956.64538395 245.62607616 C-954.31323484 246.07028101 -951.9829707 246.52367804 -949.65258789 246.97705078 C-947.96177618 247.30105357 -946.27085389 247.62447968 -944.57983112 247.94737911 C-940.90767428 248.64989347 -937.23634621 249.35654687 -933.56559372 250.06636238 C-927.60756598 251.21846832 -921.6478345 252.36159137 -915.68789673 253.50376892 C-907.03721767 255.16258632 -898.38739685 256.82581639 -889.73812866 258.49197388 C-875.90917828 261.15575812 -862.0784436 263.81020115 -848.24731445 266.46264648 C-847.08154967 266.686222 -845.91578489 266.90979751 -844.7146939 267.14014804 C-839.96774931 268.05053732 -835.22080243 268.96091474 -830.47383803 269.87120074 C-823.23072539 271.26019254 -815.98774253 272.64985877 -808.74485725 274.04003567 C-776.15085611 280.29586742 -743.55156696 286.5231957 -710.9453125 292.71484375 C-709.40896782 293.00661058 -709.40896782 293.00661058 -707.84158587 293.3042717 C-688.37988862 297.00015841 -668.91746732 300.69222537 -649.45449829 304.38140869 C-637.15562696 306.71266187 -624.8569913 309.04515499 -612.55859375 311.37890625 C-611.54229991 311.57173565 -610.52600607 311.76456505 -609.47891545 311.96323776 C-578.33072421 317.87369612 -547.19322252 323.83833727 -516.06211191 329.8380906 C-507.80368132 331.42958996 -499.54483092 333.01889431 -491.28569031 334.60670471 C-490.13480114 334.82797722 -488.98391198 335.04924973 -487.79814738 335.27722746 C-483.18769079 336.1636151 -478.5772257 337.04995841 -473.96671093 337.93604338 C-460.51231327 340.52193286 -447.05955845 343.11601361 -433.60944575 345.72410232 C-425.280907 347.33842225 -416.95060286 348.94339742 -408.61884004 350.54099339 C-403.80831208 351.46377987 -398.99877811 352.39114736 -394.19140816 353.33025932 C-389.78771396 354.19048141 -385.38186883 355.03858171 -380.97395575 355.87690914 C-379.37545051 356.18321317 -377.77781486 356.49409613 -376.18115652 356.8098861 C-374.01957794 357.23675239 -371.85551317 357.64722091 -369.69000244 358.05358887 C-368.4859589 358.28630241 -367.28191536 358.51901596 -366.04138565 358.75878143 C-362.59136764 359.03240948 -361.86690757 358.80612923 -359 357 C-356.91516088 355.09948055 -354.91999074 353.18105727 -352.937994 351.17850304 C-352.02784562 350.2709174 -352.02784562 350.2709174 -351.0993104 349.34499669 C-349.05453202 347.30352346 -347.01701131 345.25495533 -344.9793396 343.20639038 C-343.50518927 341.73168034 -342.03059644 340.25741252 -340.5555979 338.78355086 C-336.49363641 334.72218213 -332.43794794 330.65459846 -328.38320827 326.58602142 C-324.01328397 322.20337824 -319.63758172 317.82651093 -315.26252747 313.44898987 C-307.67963631 305.86031854 -300.10029056 298.26812291 -292.52326584 290.67359543 C-281.56693199 279.69207383 -270.60405701 268.7171 -259.63941331 257.74387617 C-254.53384513 252.63429517 -249.4285981 247.5243933 -244.32343483 242.41440773 C-243.81235886 241.90284973 -243.30128288 241.39129173 -242.77471976 240.86423197 C-230.60795771 228.68584531 -218.44434292 216.50431665 -206.28125 204.32226562 C-205.74898422 203.78917256 -205.21671844 203.25607949 -204.6683234 202.70683208 C-196.57042794 194.59634219 -188.47269628 186.48568876 -180.375 178.375 C-171.73609665 169.72223683 -163.09713127 161.0695356 -154.45800781 152.41699219 C-153.65957922 151.61731983 -153.65957922 151.61731983 -152.84502075 150.80149247 C-140.69920994 138.63679524 -128.55250522 126.47299246 -116.4029789 114.312006 C-115.89277524 113.80132035 -115.38257158 113.29063471 -114.8569072 112.76447374 C-109.76434577 107.66714241 -104.67162732 102.56996802 -99.5786741 97.47302814 C-88.62409907 86.50980836 -77.67230443 75.54383134 -66.72604755 64.57230589 C-58.74960301 56.57753134 -50.76969606 48.58622667 -42.7863345 40.59835814 C-38.45751282 36.26683543 -34.13040165 31.93363692 -29.80760002 27.59610558 C-25.85692867 23.6320228 -21.90176531 19.67248245 -17.94285329 15.71663006 C-16.50511781 14.27834783 -15.0691069 12.83833939 -13.63492374 11.39651494 C-11.69793154 9.44967577 -9.75499237 7.50898129 -7.81032372 5.56981468 C-7.24396981 4.99763505 -6.6776159 4.42545543 -6.09409976 3.83593702 C-2.22828265 0 -2.22828265 0 0 0 Z " fill="#FEF251" transform="translate(1555,162)"/>
<path d="M0 0 C0.66 0 1.32 0 2 0 C3.16650391 1.60693359 3.16650391 1.60693359 4.4765625 3.8984375 C4.97381836 4.75646973 5.47107422 5.61450195 5.98339844 6.49853516 C6.52512695 7.44776855 7.06685547 8.39700195 7.625 9.375 C8.80775325 11.41270347 9.99274197 13.44911065 11.1796875 15.484375 C11.80456055 16.55623047 12.42943359 17.62808594 13.07324219 18.73242188 C16.22417159 24.07606596 19.48546419 29.35025034 22.75 34.625 C28.34879836 43.68670137 33.91478958 52.76681851 39.4375 61.875 C39.7885379 62.45383942 40.13957581 63.03267883 40.50125122 63.62905884 C42.2832257 66.56767568 44.06462842 69.50663852 45.84570312 72.44580078 C51.56146248 81.87719316 57.28771643 91.30222957 63.01269531 100.72802734 C64.2908471 102.83242418 65.56885381 104.93690915 66.84667969 107.04150391 C73.46784818 117.94470222 80.11893585 128.82858089 86.8125 139.6875 C94.5480393 152.23880088 102.20483444 164.83676931 109.84570312 177.44580078 C115.56146248 186.87719316 121.28771643 196.30222957 127.01269531 205.72802734 C128.2908471 207.83242418 129.56885381 209.93690915 130.84667969 212.04150391 C137.46784818 222.94470222 144.11893585 233.82858089 150.8125 244.6875 C158.5480393 257.23880088 166.20483444 269.83676931 173.84570312 282.44580078 C179.56146248 291.87719316 185.28771643 301.30222957 191.01269531 310.72802734 C192.2908471 312.83242418 193.56885381 314.93690915 194.84667969 317.04150391 C201.46784818 327.94470222 208.11893585 338.82858089 214.8125 349.6875 C222.5480393 362.23880088 230.20483444 374.83676931 237.84570312 387.44580078 C243.56146248 396.87719316 249.28771643 406.30222957 255.01269531 415.72802734 C256.2908471 417.83242418 257.56885381 419.93690915 258.84667969 422.04150391 C265.46784818 432.94470222 272.11893585 443.82858089 278.8125 454.6875 C284.38604399 463.73085494 289.92792185 472.79259673 295.4375 481.875 C295.78530518 482.44828033 296.13311035 483.02156067 296.49145508 483.61221313 C300.17253072 489.68054951 303.8496174 495.75129815 307.52519226 501.82296753 C309.07939352 504.38976264 310.6346046 506.95594504 312.18997192 509.52203369 C313.28384915 511.3277058 314.37620425 513.13429245 315.46850586 514.94091797 C316.13503174 516.04064941 316.80155762 517.14038086 317.48828125 518.2734375 C318.07134033 519.23685059 318.65439941 520.20026367 319.25512695 521.19287109 C320.99340628 524.10393177 320.99340628 524.10393177 323.34448242 526.98291016 C325 530 325 530 324.47314453 532.89355469 C323.98700684 533.91868164 323.50086914 534.94380859 323 536 C322.46358887 537.19786133 321.92717773 538.39572266 321.37451172 539.62988281 C320.72974607 540.98930011 320.08125529 542.34695483 319.4296875 543.703125 C318.90012451 544.8163916 318.90012451 544.8163916 318.35986328 545.95214844 C317.59882576 547.55105582 316.83622134 549.14921816 316.07220459 550.7467041 C314.43935408 554.16091419 312.81410006 557.57872288 311.18826294 560.99627686 C310.35099959 562.75594968 309.51332943 564.51542901 308.67526245 566.27471924 C304.7158546 574.58763441 300.79098586 582.91656269 296.875 591.25 C296.21732292 592.64878078 295.55960799 594.04754376 294.90185547 595.44628906 C293.59028239 598.23557728 292.27894845 601.02497776 290.96777344 603.81445312 C287.98126545 610.16760387 284.99149225 616.51921814 282.00201416 622.87097168 C280.33454702 626.41392037 278.66728366 629.95696496 277 633.5 C276.33333431 634.91666713 275.66666765 636.33333379 275 637.75 C274.67 638.45125 274.34 639.1525 274 639.875 C241 710 208 780.125 127 952.25 C126.67001007 952.95122986 126.34002014 953.65245972 126.00003052 954.37493896 C125.33326604 955.79181093 124.66649765 957.20868104 123.99972534 958.62554932 C122.33452299 962.16405987 120.66938844 965.7026023 119.00439453 969.24121094 C115.98698874 975.65392481 112.96906856 982.06639418 109.94865417 988.47769165 C102.73150611 1003.79733911 95.53324228 1019.12524711 88.38525391 1034.47729492 C85.08421419 1041.56144807 81.76034994 1048.63447097 78.41796875 1055.69921875 C78.02952286 1056.52045227 77.64107697 1057.34168579 77.24085999 1058.18780518 C75.33223806 1062.22184477 73.42153999 1066.25488524 71.50805664 1070.28662109 C70.81262846 1071.75486657 70.11723296 1073.22312752 69.421875 1074.69140625 C69.10482101 1075.35774582 68.78776703 1076.02408539 68.46110535 1076.71061707 C66.85728738 1080.10052304 65.34677902 1083.49962931 64 1087 C65.68706055 1086.64953613 65.68706055 1086.64953613 67.40820312 1086.29199219 C80.81775303 1083.54061336 94.28055073 1081.17425227 107.77539062 1078.8828125 C126.53681057 1075.69524036 145.28426531 1072.44584372 164 1069 C183.04861249 1065.495671 202.12890446 1062.18844982 221.22265625 1058.93945312 C235.44883812 1056.51161764 249.65635963 1053.99100805 263.85815907 1051.42483819 C288.67972922 1046.94138702 313.51351034 1042.52910557 338.35320091 1038.14732289 C342.64495245 1037.39014251 346.93660847 1036.63242138 351.22826815 1035.87472051 C361.40009009 1034.07887902 371.57206295 1032.2838943 381.74414062 1030.48950195 C390.90056221 1028.87426181 400.05680928 1027.25803685 409.21289062 1025.64086914 C501.43910849 1009.35196516 501.43910849 1009.35196516 541.68691921 1002.46105862 C558.73983405 999.5410012 575.77153649 996.50425072 592.802948 993.46173096 C599.90000346 992.19436457 606.99858438 990.93570541 614.09765625 989.6796875 C615.7601239 989.38507881 615.7601239 989.38507881 617.45617676 989.08451843 C622.97859667 988.10700595 628.50217243 987.13724273 634.02880859 986.18383789 C643.16134682 984.60314234 652.26324586 982.99367738 661.31640625 981.00390625 C662.66767102 980.72017666 664.01922142 980.43780297 665.37109375 980.15698242 C667.72589083 979.65814545 670.07279886 979.11925335 672.40625 978.52856445 C677.08861875 977.5663675 679.68992701 977.16563792 683.82519531 979.79931641 C686.39874679 982.08044006 688.70809509 984.43884703 691 987 C692.20263392 988.21400599 693.40970863 989.423665 694.625 990.625 C695.45257812 991.46804688 695.45257812 991.46804688 696.296875 992.328125 C698.09462245 994.09288626 699.9635162 995.73443517 701.875 997.375 C704.8846753 999.96634205 707.71088616 1002.67254783 710.5 1005.5 C713.88241399 1008.9288279 717.38070442 1012.12048518 721.03515625 1015.25390625 C723.81699148 1017.72603418 726.39375951 1020.38430547 729.00390625 1023.03515625 C730.92107177 1024.92230744 732.89575322 1026.68685375 734.9375 1028.4375 C738.74824063 1031.71130653 742.25078165 1035.23363971 745.77734375 1038.80859375 C748.4270144 1041.42101068 751.21172803 1043.83302621 754.03515625 1046.25390625 C756.81561832 1048.72481389 759.39118218 1051.3816694 762 1054.03125 C763.93891002 1055.93986455 765.93699551 1057.72710552 768 1059.5 C770.78896393 1061.89676588 773.41990785 1064.37959391 776 1067 C778.55990134 1069.59982183 781.1677954 1072.06268398 783.9375 1074.4375 C787.74824063 1077.71130653 791.25078165 1081.23363971 794.77734375 1084.80859375 C797.4270144 1087.42101068 800.21172803 1089.83302621 803.03515625 1092.25390625 C805.81699148 1094.72603418 808.39375951 1097.38430547 811.00390625 1100.03515625 C812.92107177 1101.92230744 814.89575322 1103.68685375 816.9375 1105.4375 C820.74824063 1108.71130653 824.25078165 1112.23363971 827.77734375 1115.80859375 C830.4270144 1118.42101068 833.21172803 1120.83302621 836.03515625 1123.25390625 C838.81561832 1125.72481389 841.39118218 1128.3816694 844 1131.03125 C845.93891002 1132.93986455 847.93699551 1134.72710552 850 1136.5 C852.78896393 1138.89676588 855.41990785 1141.37959391 858 1144 C860.55990134 1146.59982183 863.1677954 1149.06268398 865.9375 1151.4375 C869.74824063 1154.71130653 873.25078165 1158.23363971 876.77734375 1161.80859375 C879.4270144 1164.42101068 882.21172803 1166.83302621 885.03515625 1169.25390625 C887.81561832 1171.72481389 890.39118218 1174.3816694 893 1177.03125 C894.93891002 1178.93986455 896.93699551 1180.72710552 899 1182.5 C901.78896393 1184.89676588 904.41990785 1187.37959391 907 1190 C909.55990134 1192.59982183 912.1677954 1195.06268398 914.9375 1197.4375 C918.74824063 1200.71130653 922.25078165 1204.23363971 925.77734375 1207.80859375 C928.4270144 1210.42101068 931.21172803 1212.83302621 934.03515625 1215.25390625 C936.81699148 1217.72603418 939.39375951 1220.38430547 942.00390625 1223.03515625 C943.92107177 1224.92230744 945.89575322 1226.68685375 947.9375 1228.4375 C951.74824063 1231.71130653 955.25078165 1235.23363971 958.77734375 1238.80859375 C961.4270144 1241.42101068 964.21172803 1243.83302621 967.03515625 1246.25390625 C969.81699148 1248.72603418 972.39375951 1251.38430547 975.00390625 1254.03515625 C976.92107177 1255.92230744 978.89575322 1257.68685375 980.9375 1259.4375 C984.74824063 1262.71130653 988.25078165 1266.23363971 991.77734375 1269.80859375 C994.4270144 1272.42101068 997.21172803 1274.83302621 1000.03515625 1277.25390625 C1002.81561832 1279.72481389 1005.39118218 1282.3816694 1008 1285.03125 C1009.93891002 1286.93986455 1011.93699551 1288.72710552 1014 1290.5 C1016.78896393 1292.89676588 1019.41990785 1295.37959391 1022 1298 C1024.55990134 1300.59982183 1027.1677954 1303.06268398 1029.9375 1305.4375 C1033.74824063 1308.71130653 1037.25078165 1312.23363971 1040.77734375 1315.80859375 C1043.4270144 1318.42101068 1046.21172803 1320.83302621 1049.03515625 1323.25390625 C1051.81699148 1325.72603418 1054.39375951 1328.38430547 1057.00390625 1331.03515625 C1058.92107177 1332.92230744 1060.89575322 1334.68685375 1062.9375 1336.4375 C1066.74824063 1339.71130653 1070.25078165 1343.23363971 1073.77734375 1346.80859375 C1076.4270144 1349.42101068 1079.21172803 1351.83302621 1082.03515625 1354.25390625 C1084.81561832 1356.72481389 1087.39118218 1359.3816694 1090 1362.03125 C1091.93891002 1363.93986455 1093.93699551 1365.72710552 1096 1367.5 C1098.78896393 1369.89676588 1101.41990785 1372.37959391 1104 1375 C1106.55990134 1377.59982183 1109.1677954 1380.06268398 1111.9375 1382.4375 C1115.74824063 1385.71130653 1119.25078165 1389.23363971 1122.77734375 1392.80859375 C1125.4270144 1395.42101068 1128.21172803 1397.83302621 1131.03515625 1400.25390625 C1133.81561832 1402.72481389 1136.39118218 1405.3816694 1139 1408.03125 C1140.93891002 1409.93986455 1142.93699551 1411.72710552 1145 1413.5 C1149.18502646 1417.11207641 1153.3802593 1420.81226808 1157 1425 C1157 1425.66 1157 1426.32 1157 1427 C1155.95211807 1427.26656906 1154.90423615 1427.53313812 1153.82460022 1427.80778503 C1108.61178657 1439.31050538 1063.40097212 1450.81900772 1018.25 1462.5625 C989.18679845 1470.12146451 960.10056233 1477.58618615 931 1485 C901.81622539 1492.43505863 872.64665968 1499.92072766 843.5 1507.5 C813.35294774 1515.33941357 783.18048023 1523.07527952 752.99505615 1530.76556396 C724.8130369 1537.94580205 696.64626565 1545.18086926 668.5 1552.5 C639.35333992 1560.07927245 610.18375692 1567.56487098 581 1575 C551.73303138 1582.45637421 522.48007824 1589.96276619 493.25 1597.5625 C463.8984782 1605.19380878 434.52512103 1612.73591735 405.13821411 1620.22977448 C377.65927391 1627.23743629 350.19592365 1634.3016411 322.75 1641.4375 C292.51978834 1649.29726554 262.26423296 1657.05390699 231.99586487 1664.76536179 C203.81357939 1671.94568071 175.64653469 1679.1807993 147.5 1686.5 C117.35294774 1694.33941357 87.18048023 1702.07527952 56.99505615 1709.76556396 C28.8130369 1716.94580205 0.64626565 1724.18086926 -27.5 1731.5 C-56.64666008 1739.07927245 -85.81624308 1746.56487098 -115 1754 C-144.26696862 1761.45637421 -173.51992176 1768.96276619 -202.75 1776.5625 C-233.02499207 1784.43390832 -263.32285316 1792.21219458 -293.63580322 1799.93612671 C-314.57446237 1805.27163303 -335.50465713 1810.63678705 -356.4140625 1816.0859375 C-358.3166233 1816.58138576 -360.21919079 1817.07680836 -362.12176514 1817.57220459 C-370.25829263 1819.69143682 -378.39408764 1821.81331947 -386.52671242 1823.94748497 C-389.80504062 1824.80679656 -393.08440413 1825.66210528 -396.36402512 1826.51646805 C-397.87377263 1826.91078107 -399.38305008 1827.30689915 -400.89180374 1827.70499802 C-402.9548428 1828.24922718 -405.01942863 1828.78716751 -407.08447266 1829.32373047 C-408.23420563 1829.62519989 -409.3839386 1829.92666931 -410.56851196 1830.23727417 C-414.38306823 1831.08514558 -418.1176928 1831.56992395 -422 1832 C-416.60119864 1807.5001756 -411.05213714 1783.03788852 -405.39938951 1758.59549594 C-404.30841876 1753.87658806 -403.21922694 1749.15726953 -402.12980652 1744.43800354 C-400.05610285 1735.45606019 -397.98092243 1726.47445875 -395.90515774 1717.49299151 C-393.62252056 1707.61614822 -391.34140509 1697.73895375 -389.0604955 1687.86171138 C-385.6539718 1673.11018246 -382.24682578 1658.35879739 -378.83907223 1643.60755253 C-364.06093588 1579.63693336 -349.30472193 1515.66128392 -334.57300347 1451.67995983 C-329.92324904 1431.48565548 -325.27253096 1411.29157307 -320.62109375 1391.09765625 C-320.39600742 1390.1204564 -320.17092109 1389.14325654 -319.93901396 1388.13644457 C-313.55996758 1360.44254103 -307.17627659 1332.74971345 -300.78515625 1305.05859375 C-300.60197373 1304.26490985 -300.41879122 1303.47122595 -300.23005772 1302.65349102 C-297.48705501 1290.76891325 -294.74357005 1278.88444681 -292 1267 C-289.05572767 1254.2461542 -286.1115935 1241.49227653 -283.16796875 1228.73828125 C-282.89212716 1227.54312818 -282.89212716 1227.54312818 -282.61071301 1226.3238306 C-272.8306243 1183.94828336 -263.07176892 1141.56784595 -253.3125 1099.1875 C-249.84002627 1084.10803088 -246.36747576 1069.02857945 -242.89453125 1053.94921875 C-242.68283185 1053.03002891 -242.47113244 1052.11083907 -242.2530179 1051.16379499 C-233.51495969 1013.22401517 -224.76202967 975.28767701 -216.00421238 937.35245419 C-207.36261629 899.9205611 -198.72748053 862.48719082 -190.10546875 825.05078125 C-189.8936485 824.13106773 -189.68182824 823.21135421 -189.46358919 822.26377058 C-185.98543999 807.1616811 -182.50771544 792.05949382 -179.03001022 776.95730209 C-169.30453525 734.72378305 -159.57842437 692.49041626 -149.83203125 650.26171875 C-149.64815668 649.46503595 -149.46428211 648.66835316 -149.27483559 647.84752846 C-146.33410518 635.10625078 -143.39281947 622.3651013 -140.45148373 609.62396336 C-137.6900587 597.6621278 -134.92879499 585.70025502 -132.16796875 573.73828125 C-131.98412439 572.94172937 -131.80028004 572.1451775 -131.61086464 571.32448769 C-121.83072528 528.94872144 -112.07181936 486.568065 -102.3125 444.1875 C-98.84002627 429.10803088 -95.36747576 414.02857945 -91.89453125 398.94921875 C-91.68283185 398.03002891 -91.47113244 397.11083907 -91.2530179 396.16379499 C-82.84358271 359.65086366 -74.42065159 323.14105628 -65.99230289 286.63248682 C-53.64897058 233.16541652 -41.32152853 179.6946958 -29.0041362 126.22164345 C-27.41465741 119.32131954 -25.82503512 112.42102869 -24.23535156 105.52075195 C-22.08886966 96.20353895 -19.94275778 86.88624076 -17.79689217 77.5688858 C-17.00963274 74.15063999 -16.22225196 70.73242217 -15.43475151 67.31423187 C-10.26668935 44.88142273 -5.12206801 22.44335697 0 0 Z " fill="#C49628" transform="translate(582,406)"/>
<path d="M0 0 C0.66 0 1.32 0 2 0 C3.16650391 1.60693359 3.16650391 1.60693359 4.4765625 3.8984375 C4.97381836 4.75646973 5.47107422 5.61450195 5.98339844 6.49853516 C6.52512695 7.44776855 7.06685547 8.39700195 7.625 9.375 C8.80775325 11.41270347 9.99274197 13.44911065 11.1796875 15.484375 C11.80456055 16.55623047 12.42943359 17.62808594 13.07324219 18.73242188 C16.22417159 24.07606596 19.48546419 29.35025034 22.75 34.625 C28.34879836 43.68670137 33.91478958 52.76681851 39.4375 61.875 C39.7885379 62.45383942 40.13957581 63.03267883 40.50125122 63.62905884 C42.2832257 66.56767568 44.06462842 69.50663852 45.84570312 72.44580078 C51.56146248 81.87719316 57.28771643 91.30222957 63.01269531 100.72802734 C64.2908471 102.83242418 65.56885381 104.93690915 66.84667969 107.04150391 C73.46784818 117.94470222 80.11893585 128.82858089 86.8125 139.6875 C94.5480393 152.23880088 102.20483444 164.83676931 109.84570312 177.44580078 C115.56146248 186.87719316 121.28771643 196.30222957 127.01269531 205.72802734 C128.2908471 207.83242418 129.56885381 209.93690915 130.84667969 212.04150391 C137.46784818 222.94470222 144.11893585 233.82858089 150.8125 244.6875 C158.5480393 257.23880088 166.20483444 269.83676931 173.84570312 282.44580078 C179.56146248 291.87719316 185.28771643 301.30222957 191.01269531 310.72802734 C192.2908471 312.83242418 193.56885381 314.93690915 194.84667969 317.04150391 C201.46784818 327.94470222 208.11893585 338.82858089 214.8125 349.6875 C222.5480393 362.23880088 230.20483444 374.83676931 237.84570312 387.44580078 C243.56146248 396.87719316 249.28771643 406.30222957 255.01269531 415.72802734 C256.2908471 417.83242418 257.56885381 419.93690915 258.84667969 422.04150391 C265.46784818 432.94470222 272.11893585 443.82858089 278.8125 454.6875 C284.38604399 463.73085494 289.92792185 472.79259673 295.4375 481.875 C295.78530518 482.44828033 296.13311035 483.02156067 296.49145508 483.61221313 C300.17253072 489.68054951 303.8496174 495.75129815 307.52519226 501.82296753 C309.07939352 504.38976264 310.6346046 506.95594504 312.18997192 509.52203369 C313.28384915 511.3277058 314.37620425 513.13429245 315.46850586 514.94091797 C316.13503174 516.04064941 316.80155762 517.14038086 317.48828125 518.2734375 C318.07134033 519.23685059 318.65439941 520.20026367 319.25512695 521.19287109 C320.99340628 524.10393177 320.99340628 524.10393177 323.34448242 526.98291016 C325 530 325 530 324.47314453 532.89355469 C323.98700684 533.91868164 323.50086914 534.94380859 323 536 C322.46358887 537.19786133 321.92717773 538.39572266 321.37451172 539.62988281 C320.72974607 540.98930011 320.08125529 542.34695483 319.4296875 543.703125 C318.90012451 544.8163916 318.90012451 544.8163916 318.35986328 545.95214844 C317.59882576 547.55105582 316.83622134 549.14921816 316.07220459 550.7467041 C314.43935408 554.16091419 312.81410006 557.57872288 311.18826294 560.99627686 C310.35099959 562.75594968 309.51332943 564.51542901 308.67526245 566.27471924 C304.7158546 574.58763441 300.79098586 582.91656269 296.875 591.25 C296.21732292 592.64878078 295.55960799 594.04754376 294.90185547 595.44628906 C293.59028239 598.23557728 292.27894845 601.02497776 290.96777344 603.81445312 C287.98126545 610.16760387 284.99149225 616.51921814 282.00201416 622.87097168 C280.33454702 626.41392037 278.66728366 629.95696496 277 633.5 C276.33333431 634.91666713 275.66666765 636.33333379 275 637.75 C274.67 638.45125 274.34 639.1525 274 639.875 C241 710 208 780.125 127 952.25 C126.67001007 952.95122986 126.34002014 953.65245972 126.00003052 954.37493896 C125.33326604 955.79181093 124.66649765 957.20868104 123.99972534 958.62554932 C122.33452299 962.16405987 120.66938844 965.7026023 119.00439453 969.24121094 C115.98698874 975.65392481 112.96906856 982.06639418 109.94865417 988.47769165 C102.73122804 1003.79792936 95.52993954 1019.12517797 88.38525391 1034.47949219 C85.09034908 1041.55420879 81.76582199 1048.61423831 78.41796875 1055.6640625 C78.02952286 1056.48292938 77.64107697 1057.30179626 77.24085999 1058.14547729 C75.33401379 1062.16519453 73.42401176 1066.18334681 71.50805664 1070.19873047 C70.81250664 1071.66366286 70.11710544 1073.12866592 69.421875 1074.59375 C69.10482101 1075.25492828 68.78776703 1075.91610657 68.46110535 1076.59732056 C67.10548484 1079.46227817 65.92239467 1082.24765773 64.97363281 1085.27539062 C63.97549391 1088.06857773 63.16299344 1089.07494269 61 1091 C60.0729794 1092.29813569 59.18217372 1093.6225626 58.3203125 1094.96484375 C57.81048828 1095.75439453 57.30066406 1096.54394531 56.77539062 1097.35742188 C56.23076172 1098.20884766 55.68613281 1099.06027344 55.125 1099.9375 C53.95061888 1101.7591778 52.77613694 1103.5807906 51.6015625 1105.40234375 C51.0024707 1106.3341748 50.40337891 1107.26600586 49.78613281 1108.22607422 C47.03841309 1112.49337759 44.26883698 1116.74638158 41.5 1121 C40.41654634 1122.66658845 39.33321338 1124.33325537 38.25 1126 C31.75 1136 25.25 1146 18.75 1156 C18.21391113 1156.8247583 17.67782227 1157.6495166 17.12548828 1158.49926758 C16.04055022 1160.16839052 14.95558923 1161.83749856 13.87060547 1163.5065918 C11.18663762 1167.63555642 8.50304969 1171.7647669 5.8203125 1175.89453125 C-0.57939717 1185.74506476 -6.9904827 1195.58809791 -13.40917969 1205.42626953 C-19.08505363 1214.1272293 -24.74796927 1222.83656623 -30.40722656 1231.54833984 C-33.10404754 1235.69939383 -35.80209214 1239.84965238 -38.5 1244 C-39.58333905 1245.66666295 -40.66667239 1247.33332961 -41.75 1249 C-43.91666667 1252.33333333 -46.08333333 1255.66666667 -48.25 1259 C-48.78608887 1259.8247583 -49.32217773 1260.6495166 -49.87451172 1261.49926758 C-50.95944978 1263.16839052 -52.04441077 1264.83749856 -53.12939453 1266.5065918 C-55.81336238 1270.63555642 -58.49695031 1274.7647669 -61.1796875 1278.89453125 C-67.57939717 1288.74506476 -73.9904827 1298.58809791 -80.40917969 1308.42626953 C-86.08505363 1317.1272293 -91.74796927 1325.83656623 -97.40722656 1334.54833984 C-100.10404754 1338.69939383 -102.80209214 1342.84965238 -105.5 1347 C-106.58333905 1348.66666295 -107.66667239 1350.33332961 -108.75 1352 C-115.25 1362 -121.75 1372 -128.25 1382 C-128.78608887 1382.8247583 -129.32217773 1383.6495166 -129.87451172 1384.49926758 C-130.95944978 1386.16839052 -132.04441077 1387.83749856 -133.12939453 1389.5065918 C-135.81336238 1393.63555642 -138.49695031 1397.7647669 -141.1796875 1401.89453125 C-147.57939717 1411.74506476 -153.9904827 1421.58809791 -160.40917969 1431.42626953 C-166.08505363 1440.1272293 -171.74796927 1448.83656623 -177.40722656 1457.54833984 C-180.10404754 1461.69939383 -182.80209214 1465.84965238 -185.5 1470 C-186.58333905 1471.66666295 -187.66667239 1473.33332961 -188.75 1475 C-190.91666667 1478.33333333 -193.08333333 1481.66666667 -195.25 1485 C-195.78608887 1485.8247583 -196.32217773 1486.6495166 -196.87451172 1487.49926758 C-197.95944978 1489.16839052 -199.04441077 1490.83749856 -200.12939453 1492.5065918 C-202.81336238 1496.63555642 -205.49695031 1500.7647669 -208.1796875 1504.89453125 C-214.57939717 1514.74506476 -220.9904827 1524.58809791 -227.40917969 1534.42626953 C-233.08505363 1543.1272293 -238.74796927 1551.83656623 -244.40722656 1560.54833984 C-247.64712004 1565.53531261 -250.88866655 1570.52121112 -254.12988281 1575.50732422 C-256.81367663 1579.63605202 -259.49711015 1583.76501294 -262.1796875 1587.89453125 C-268.57939717 1597.74506476 -274.9904827 1607.58809791 -281.40917969 1617.42626953 C-287.08505363 1626.1272293 -292.74796927 1634.83656623 -298.40722656 1643.54833984 C-301.10404754 1647.69939383 -303.80209214 1651.84965238 -306.5 1656 C-307.58333905 1657.66666295 -308.66667239 1659.33332961 -309.75 1661 C-320.58333333 1677.66666667 -331.41666667 1694.33333333 -342.25 1711 C-343.0541333 1712.23713745 -343.0541333 1712.23713745 -343.87451172 1713.49926758 C-344.95944978 1715.16839052 -346.04441077 1716.83749856 -347.12939453 1718.5065918 C-349.81336238 1722.63555642 -352.49695031 1726.7647669 -355.1796875 1730.89453125 C-361.57939717 1740.74506476 -367.9904827 1750.58809791 -374.40917969 1760.42626953 C-378.48642377 1766.67657339 -382.55851868 1772.93018877 -386.625 1779.1875 C-387.15424072 1780.00162354 -387.68348145 1780.81574707 -388.22875977 1781.65454102 C-390.89168107 1785.75181319 -393.55161389 1789.85098526 -396.20703125 1793.953125 C-404.03586468 1806.03760772 -411.98582291 1818.03767548 -420 1830 C-421.35543257 1826.23821392 -420.65463549 1823.48490524 -419.75888062 1819.64724731 C-419.61281187 1819.01012076 -419.46674313 1818.3729942 -419.31624806 1817.71656078 C-418.82285591 1815.57471803 -418.31642754 1813.43617224 -417.81005859 1811.29736328 C-417.45187037 1809.7546866 -417.09449293 1808.21182149 -416.73786163 1806.66878414 C-415.75818582 1802.44046064 -414.76719602 1798.21485801 -413.77438498 1793.98960233 C-412.71847193 1789.48676774 -411.67316487 1784.9814722 -410.6267395 1780.47642517 C-408.82853373 1772.74101808 -407.02397242 1765.00711701 -405.21508789 1757.27420044 C-402.35457501 1745.04495651 -399.50723363 1732.81266586 -396.66210938 1720.57983398 C-395.70642499 1716.47140514 -394.75065929 1712.36299521 -393.79486084 1708.2545929 C-393.4404716 1706.73122607 -393.4404716 1706.73122607 -393.07892299 1705.17708415 C-391.4041545 1697.97870187 -389.72765755 1690.78072348 -388.050354 1683.58293152 C-380.75977786 1652.29507653 -373.52324005 1620.99528155 -366.33201981 1589.68443298 C-364.92272062 1583.54949825 -363.5119914 1577.41489239 -362.10131836 1571.28027344 C-361.52215766 1568.76158724 -360.94300018 1566.2429003 -360.36384583 1563.72421265 C-359.9281877 1561.82958345 -359.9281877 1561.82958345 -359.48372841 1559.89667892 C-358.59321339 1556.02364583 -357.70285936 1552.15057574 -356.81254578 1548.27749634 C-348.63989307 1512.72556584 -340.4509277 1477.1773892 -332.2628479 1441.62900925 C-331.37925982 1437.79292696 -330.49569471 1433.95683938 -329.6121521 1430.12074661 C-316.72328932 1374.16094084 -303.82055187 1318.2043534 -290.90369415 1262.25100327 C-278.35681288 1207.90029423 -265.8298502 1153.54501757 -253.3125 1099.1875 C-249.84002627 1084.10803088 -246.36747576 1069.02857945 -242.89453125 1053.94921875 C-242.68283185 1053.03002891 -242.47113244 1052.11083907 -242.2530179 1051.16379499 C-233.51495969 1013.22401517 -224.76202967 975.28767701 -216.00421238 937.35245419 C-207.36261629 899.9205611 -198.72748053 862.48719082 -190.10546875 825.05078125 C-189.8936485 824.13106773 -189.68182824 823.21135421 -189.46358919 822.26377058 C-185.98543999 807.1616811 -182.50771544 792.05949382 -179.03001022 776.95730209 C-169.30453525 734.72378305 -159.57842437 692.49041626 -149.83203125 650.26171875 C-149.64815668 649.46503595 -149.46428211 648.66835316 -149.27483559 647.84752846 C-146.33410518 635.10625078 -143.39281947 622.3651013 -140.45148373 609.62396336 C-137.6900587 597.6621278 -134.92879499 585.70025502 -132.16796875 573.73828125 C-131.98412439 572.94172937 -131.80028004 572.1451775 -131.61086464 571.32448769 C-121.83072528 528.94872144 -112.07181936 486.568065 -102.3125 444.1875 C-98.84002627 429.10803088 -95.36747576 414.02857945 -91.89453125 398.94921875 C-91.68283185 398.03002891 -91.47113244 397.11083907 -91.2530179 396.16379499 C-82.84358271 359.65086366 -74.42065159 323.14105628 -65.99230289 286.63248682 C-53.64897058 233.16541652 -41.32152853 179.6946958 -29.0041362 126.22164345 C-27.41465741 119.32131954 -25.82503512 112.42102869 -24.23535156 105.52075195 C-22.08886966 96.20353895 -19.94275778 86.88624076 -17.79689217 77.5688858 C-17.00963274 74.15063999 -16.22225196 70.73242217 -15.43475151 67.31423187 C-10.26668935 44.88142273 -5.12206801 22.44335697 0 0 Z " fill="#CCA32F" transform="translate(582,406)"/>
<path d="M0 0 C-3.81731405 4.02938705 -7.89786884 7.29493392 -12.375 10.5625 C-17.84080048 14.60287593 -23.21755993 18.72270066 -28.5 23 C-34.24001024 27.64116506 -40.09409074 32.09889912 -46.01953125 36.5 C-50.59054317 39.9082885 -55.0661039 43.41554505 -59.5 47 C-65.24041954 51.64067601 -71.09406868 56.09888273 -77.01953125 60.5 C-81.5905463 63.90829083 -86.06604766 67.41561136 -90.5 71 C-96.26770386 75.66142316 -102.14562487 80.14720024 -108.09423828 84.57470703 C-113.56807897 88.65583468 -118.94426269 92.84875108 -124.30078125 97.08203125 C-134.66144551 105.26924832 -145.11937723 113.33406737 -155.59375 121.375 C-159.74241368 124.56627975 -163.87032481 127.784213 -168 131 C-173.15557352 135.01465625 -178.31684228 139.02101023 -183.5 143 C-191.69698374 149.29429617 -199.84603994 155.65013322 -208 162 C-217.17988011 169.14879829 -226.36454382 176.28995283 -235.59375 183.375 C-239.74241368 186.56627975 -243.87032481 189.784213 -248 193 C-254.18146123 197.81351723 -260.37921882 202.60424879 -266.59375 207.375 C-270.74241368 210.56627975 -274.87032481 213.784213 -279 217 C-285.18146123 221.81351723 -291.37921882 226.60424879 -297.59375 231.375 C-301.74241368 234.56627975 -305.87032481 237.784213 -310 241 C-316.18146123 245.81351723 -322.37921882 250.60424879 -328.59375 255.375 C-332.74241368 258.56627975 -336.87032481 261.784213 -341 265 C-347.18146123 269.81351723 -353.37921882 274.60424879 -359.59375 279.375 C-363.74241368 282.56627975 -367.87032481 285.784213 -372 289 C-378.18146123 293.81351723 -384.37921882 298.60424879 -390.59375 303.375 C-394.74241368 306.56627975 -398.87032481 309.784213 -403 313 C-409.18146123 317.81351723 -415.37921882 322.60424879 -421.59375 327.375 C-425.74241368 330.56627975 -429.87032481 333.784213 -434 337 C-440.18146123 341.81351723 -446.37921882 346.60424879 -452.59375 351.375 C-456.74241389 354.56627991 -460.87030247 357.78424136 -465 361 C-473.3255216 367.48226799 -481.68336578 373.92074101 -490.0546875 380.34375 C-497.17309455 385.81125466 -504.26448813 391.31249914 -511.34643555 396.82714844 C-516.74661635 401.03039666 -522.165597 405.20793305 -527.59375 409.375 C-531.74241368 412.56627975 -535.87032481 415.784213 -540 419 C-546.18146123 423.81351723 -552.37921882 428.60424879 -558.59375 433.375 C-562.74241368 436.56627975 -566.87032481 439.784213 -571 443 C-577.18146123 447.81351723 -583.37921882 452.60424879 -589.59375 457.375 C-593.74241368 460.56627975 -597.87032481 463.784213 -602 467 C-608.18146123 471.81351723 -614.37921882 476.60424879 -620.59375 481.375 C-624.74241368 484.56627975 -628.87032481 487.784213 -633 491 C-639.18146123 495.81351723 -645.37921882 500.60424879 -651.59375 505.375 C-655.74241368 508.56627975 -659.87032481 511.784213 -664 515 C-670.18146123 519.81351723 -676.37921882 524.60424879 -682.59375 529.375 C-686.74241368 532.56627975 -690.87032481 535.784213 -695 539 C-701.18146123 543.81351723 -707.37921882 548.60424879 -713.59375 553.375 C-717.74241368 556.56627975 -721.87032481 559.784213 -726 563 C-732.18146123 567.81351723 -738.37921882 572.60424879 -744.59375 577.375 C-748.74241368 580.56627975 -752.87032481 583.784213 -757 587 C-763.18146123 591.81351723 -769.37921882 596.60424879 -775.59375 601.375 C-779.74241368 604.56627975 -783.87032481 607.784213 -788 611 C-794.18146123 615.81351723 -800.37921882 620.60424879 -806.59375 625.375 C-810.74241368 628.56627975 -814.87032481 631.784213 -819 635 C-825.18146123 639.81351723 -831.37921882 644.60424879 -837.59375 649.375 C-841.74241368 652.56627975 -845.87032481 655.784213 -850 659 C-856.18146123 663.81351723 -862.37921882 668.60424879 -868.59375 673.375 C-872.74241368 676.56627975 -876.87032481 679.784213 -881 683 C-887.18146123 687.81351723 -893.37921882 692.60424879 -899.59375 697.375 C-903.74241368 700.56627975 -907.87032481 703.784213 -912 707 C-918.18146123 711.81351723 -924.37921882 716.60424879 -930.59375 721.375 C-934.74241368 724.56627975 -938.87032481 727.784213 -943 731 C-949.18146123 735.81351723 -955.37921882 740.60424879 -961.59375 745.375 C-965.74241368 748.56627975 -969.87032481 751.784213 -974 755 C-980.18146123 759.81351723 -986.37921882 764.60424879 -992.59375 769.375 C-996.74241368 772.56627975 -1000.87032481 775.784213 -1005 779 C-1011.18146123 783.81351723 -1017.37921882 788.60424879 -1023.59375 793.375 C-1027.74241368 796.56627975 -1031.87032481 799.784213 -1036 803 C-1042.18146123 807.81351723 -1048.37921882 812.60424879 -1054.59375 817.375 C-1059.52192635 821.16590488 -1064.42228328 824.99270617 -1069.32788086 828.81274414 C-1074.91651692 833.1626343 -1080.52332375 837.48800554 -1086.140625 841.80078125 C-1090.10640782 844.85096667 -1094.0557423 847.92205213 -1098 851 C-1098.66 850.67 -1099.32 850.34 -1100 850 C-1099.20442708 848.77604167 -1098.40885417 847.55208333 -1097.61328125 846.328125 C-1097.09378906 845.52890625 -1096.57429688 844.7296875 -1096.0390625 843.90625 C-1094.26171875 841.171875 -1092.484375 838.4375 -1090.70703125 835.703125 C-1090.08908691 834.75244141 -1089.47114258 833.80175781 -1088.83447266 832.82226562 C-1087.12272135 830.18880208 -1085.41097005 827.55533854 -1083.69921875 824.921875 C-1083.17046143 824.108396 -1082.6417041 823.29491699 -1082.09692383 822.45678711 C-1081.02256515 820.80394024 -1079.94818323 819.15110847 -1078.8737793 817.49829102 C-1076.18875366 813.36769868 -1073.50410718 809.236861 -1070.8203125 805.10546875 C-1064.42060283 795.25493524 -1058.0095173 785.41190209 -1051.59082031 775.57373047 C-1045.91494637 766.8727707 -1040.25203073 758.16343377 -1034.59277344 749.45166016 C-1031.89595246 745.30060617 -1029.19790786 741.15034762 -1026.5 737 C-1025.41666095 735.33333705 -1024.33332761 733.66667039 -1023.25 732 C-1007 707 -1007 707 -990.75 682 C-989.9458667 680.76286255 -989.9458667 680.76286255 -989.12548828 679.50073242 C-988.04055022 677.83160948 -986.95558923 676.16250144 -985.87060547 674.4934082 C-983.18663762 670.36444358 -980.50304969 666.2352331 -977.8203125 662.10546875 C-971.42060283 652.25493524 -965.0095173 642.41190209 -958.59082031 632.57373047 C-952.91494637 623.8727707 -947.25203073 615.16343377 -941.59277344 606.45166016 C-938.35287996 601.46468739 -935.11133345 596.47878888 -931.87011719 591.49267578 C-929.18632337 587.36394798 -926.50288985 583.23498706 -923.8203125 579.10546875 C-917.42060283 569.25493524 -911.0095173 559.41190209 -904.59082031 549.57373047 C-898.91494637 540.8727707 -893.25203073 532.16343377 -887.59277344 523.45166016 C-884.89595246 519.30060617 -882.19790786 515.15034762 -879.5 511 C-878.41666095 509.33333705 -877.33332761 507.66667039 -876.25 506 C-874.08333333 502.66666667 -871.91666667 499.33333333 -869.75 496 C-869.21391113 495.1752417 -868.67782227 494.3504834 -868.12548828 493.50073242 C-867.04055022 491.83160948 -865.95558923 490.16250144 -864.87060547 488.4934082 C-862.18663762 484.36444358 -859.50304969 480.2352331 -856.8203125 476.10546875 C-850.42060283 466.25493524 -844.0095173 456.41190209 -837.59082031 446.57373047 C-831.91494637 437.8727707 -826.25203073 429.16343377 -820.59277344 420.45166016 C-817.89595246 416.30060617 -815.19790786 412.15034762 -812.5 408 C-811.41666095 406.33333705 -810.33332761 404.66667039 -809.25 403 C-802.75 393 -796.25 383 -789.75 373 C-789.21391113 372.1752417 -788.67782227 371.3504834 -788.12548828 370.50073242 C-787.04055022 368.83160948 -785.95558923 367.16250144 -784.87060547 365.4934082 C-782.18663762 361.36444358 -779.50304969 357.2352331 -776.8203125 353.10546875 C-770.42060283 343.25493524 -764.0095173 333.41190209 -757.59082031 323.57373047 C-751.91494637 314.8727707 -746.25203073 306.16343377 -740.59277344 297.45166016 C-737.89595246 293.30060617 -735.19790786 289.15034762 -732.5 285 C-731.41666095 283.33333705 -730.33332761 281.66667039 -729.25 280 C-727.08333333 276.66666667 -724.91666667 273.33333333 -722.75 270 C-722.21391113 269.1752417 -721.67782227 268.3504834 -721.12548828 267.50073242 C-720.04055022 265.83160948 -718.95558923 264.16250144 -717.87060547 262.4934082 C-715.18663762 258.36444358 -712.50304969 254.2352331 -709.8203125 250.10546875 C-703.42060283 240.25493524 -697.0095173 230.41190209 -690.59082031 220.57373047 C-684.91494637 211.8727707 -679.25203073 203.16343377 -673.59277344 194.45166016 C-670.89595246 190.30060617 -668.19790786 186.15034762 -665.5 182 C-664.41666095 180.33333705 -663.33332761 178.66667039 -662.25 177 C-655.75 167 -649.25 157 -642.75 147 C-642.2130249 146.17371094 -641.6760498 145.34742188 -641.12280273 144.49609375 C-640.04743521 142.84203062 -638.97143373 141.18837946 -637.89477539 139.53515625 C-635.05902783 135.1789525 -632.23707182 130.81455302 -629.43359375 126.4375 C-628.84835937 125.52742188 -628.263125 124.61734375 -627.66015625 123.6796875 C-626.54018759 121.93751402 -625.42408259 120.19284859 -624.3125 118.4453125 C-623.55259766 117.26582031 -623.55259766 117.26582031 -622.77734375 116.0625 C-622.33640381 115.37285156 -621.89546387 114.68320313 -621.44116211 113.97265625 C-617.46255474 108.52675628 -614.04118849 107.16794866 -607.46875 106.046875 C-606.59617554 105.88548035 -605.72360107 105.72408569 -604.82458496 105.55780029 C-601.88598621 105.02050439 -598.94367076 104.50873342 -596 104 C-593.87888142 103.62579176 -591.75778834 103.25143893 -589.63671875 102.87695312 C-583.83569515 101.86095344 -578.03081573 100.8687132 -572.22460938 99.8828125 C-553.46318943 96.69524036 -534.71573469 93.44584372 -516 90 C-496.95138751 86.495671 -477.87109554 83.18844982 -458.77734375 79.93945312 C-444.55116188 77.51161764 -430.34364037 74.99100805 -416.14184093 72.42483819 C-391.32027078 67.94138702 -366.48648966 63.52910557 -341.64679909 59.14732289 C-337.35504755 58.39014251 -333.06339153 57.63242138 -328.77173185 56.87472051 C-318.59990991 55.07887902 -308.42793705 53.2838943 -298.25585938 51.48950195 C-289.09943779 49.87426181 -279.94319072 48.25803685 -270.78710938 46.64086914 C-178.56083395 30.351955 -178.56083395 30.351955 -138.31307507 23.46105766 C-122.28820401 20.71703728 -106.28195548 17.87117506 -90.27734375 15.01171875 C-78.67048795 12.93804221 -67.05998247 10.88518706 -55.44869995 8.8364563 C-53.28308556 8.45434052 -51.11749593 8.07208433 -48.95193481 7.68966675 C-43.94654988 6.80577001 -38.94088873 5.92351685 -33.93457031 5.04492188 C-29.80738027 4.32026269 -25.6821291 3.58544648 -21.55761719 2.84570312 C-19.47331938 2.47519244 -17.38900987 2.10474749 -15.3046875 1.734375 C-14.34257355 1.55996887 -13.38045959 1.38556274 -12.38919067 1.20587158 C-11.49231537 1.04737732 -10.59544006 0.88888306 -9.67138672 0.72558594 C-8.88754608 0.58505798 -8.10370544 0.44453003 -7.29611206 0.29974365 C-4.8402753 -0.0208511 -2.47390335 -0.05080951 0 0 Z " fill="#AD7219" transform="translate(1262,1385)"/>
<path d="M0 0 C1.28240186 3.84720559 0.48691728 4.65155076 -1.2890625 8.21484375 C-1.81137451 9.27807861 -2.33368652 10.34131348 -2.87182617 11.43676758 C-3.45037354 12.59200928 -4.0289209 13.74725098 -4.625 14.9375 C-5.84693277 17.41707557 -7.06167334 19.90016201 -8.27734375 22.3828125 C-8.59030899 23.01949356 -8.90327423 23.65617462 -9.22572327 24.31214905 C-12.31144202 30.60034348 -15.25831429 36.95002749 -18.1875 43.3125 C-23.33056285 54.44803307 -28.55411242 65.54351073 -33.8125 76.625 C-35.35816214 79.88277018 -36.90376695 83.14056753 -38.44921875 86.3984375 C-38.83124954 87.20375412 -39.21328033 88.00907074 -39.60688782 88.83879089 C-43.46196437 96.96847622 -47.29632005 105.10785624 -51.125 113.25 C-51.45118317 113.94361633 -51.77736633 114.63723267 -52.11343384 115.35186768 C-53.75332701 118.83925724 -55.39286678 122.3268128 -57.03222656 125.81445312 C-60.01873455 132.16760387 -63.00850775 138.51921814 -65.99798584 144.87097168 C-67.66545298 148.41392037 -69.33271634 151.95696496 -71 155.5 C-71.66666569 156.91666713 -72.33333235 158.33333379 -73 159.75 C-73.33 160.45125 -73.66 161.1525 -74 161.875 C-107 232 -140 302.125 -189 406.25 C-189.32998993 406.95122986 -189.65997986 407.65245972 -189.99996948 408.37493896 C-190.66673396 409.79181093 -191.33350235 411.20868104 -192.00027466 412.62554932 C-193.66547701 416.16405987 -195.33061156 419.7026023 -196.99560547 423.24121094 C-200.01301126 429.65392481 -203.03093144 436.06639418 -206.05134583 442.47769165 C-213.26877196 457.79792936 -220.47006046 473.12517797 -227.61474609 488.47949219 C-230.90965092 495.55420879 -234.23417801 502.61423831 -237.58203125 509.6640625 C-237.97047714 510.48292938 -238.35892303 511.30179626 -238.75914001 512.14547729 C-240.66598621 516.16519453 -242.57598824 520.18334681 -244.49194336 524.19873047 C-245.18749336 525.66366286 -245.88289456 527.12866592 -246.578125 528.59375 C-246.89517899 529.25492828 -247.21223297 529.91610657 -247.53889465 530.59732056 C-248.89451516 533.46227817 -250.07760533 536.24765773 -251.02636719 539.27539062 C-252.02450609 542.06857773 -252.83700656 543.07494269 -255 545 C-255.9270206 546.29813569 -256.81782628 547.6225626 -257.6796875 548.96484375 C-258.18951172 549.75439453 -258.69933594 550.54394531 -259.22460938 551.35742188 C-260.04155273 552.63456055 -260.04155273 552.63456055 -260.875 553.9375 C-262.04938112 555.7591778 -263.22386306 557.5807906 -264.3984375 559.40234375 C-264.9975293 560.3341748 -265.59662109 561.26600586 -266.21386719 562.22607422 C-268.96158691 566.49337759 -271.73116302 570.74638158 -274.5 575 C-275.58345366 576.66658845 -276.66678662 578.33325537 -277.75 580 C-284.25 590 -290.75 600 -297.25 610 C-297.78608887 610.8247583 -298.32217773 611.6495166 -298.87451172 612.49926758 C-299.95944978 614.16839052 -301.04441077 615.83749856 -302.12939453 617.5065918 C-304.81336238 621.63555642 -307.49695031 625.7647669 -310.1796875 629.89453125 C-316.57939717 639.74506476 -322.9904827 649.58809791 -329.40917969 659.42626953 C-335.08505363 668.1272293 -340.74796927 676.83656623 -346.40722656 685.54833984 C-349.10404754 689.69939383 -351.80209214 693.84965238 -354.5 698 C-355.58333905 699.66666295 -356.66667239 701.33332961 -357.75 703 C-359.91666667 706.33333333 -362.08333333 709.66666667 -364.25 713 C-364.78608887 713.8247583 -365.32217773 714.6495166 -365.87451172 715.49926758 C-366.95944978 717.16839052 -368.04441077 718.83749856 -369.12939453 720.5065918 C-371.81336238 724.63555642 -374.49695031 728.7647669 -377.1796875 732.89453125 C-383.57939717 742.74506476 -389.9904827 752.58809791 -396.40917969 762.42626953 C-402.08505363 771.1272293 -407.74796927 779.83656623 -413.40722656 788.54833984 C-416.10404754 792.69939383 -418.80209214 796.84965238 -421.5 801 C-422.58333905 802.66666295 -423.66667239 804.33332961 -424.75 806 C-434.5 821 -434.5 821 -444.25 836 C-444.78608887 836.8247583 -445.32217773 837.6495166 -445.87451172 838.49926758 C-446.95944978 840.16839052 -448.04441077 841.83749856 -449.12939453 843.5065918 C-451.81336238 847.63555642 -454.49695031 851.7647669 -457.1796875 855.89453125 C-463.57939717 865.74506476 -469.9904827 875.58809791 -476.40917969 885.42626953 C-482.08505363 894.1272293 -487.74796927 902.83656623 -493.40722656 911.54833984 C-496.10404754 915.69939383 -498.80209214 919.84965238 -501.5 924 C-502.58333905 925.66666295 -503.66667239 927.33332961 -504.75 929 C-506.91666667 932.33333333 -509.08333333 935.66666667 -511.25 939 C-511.78608887 939.8247583 -512.32217773 940.6495166 -512.87451172 941.49926758 C-513.95944978 943.16839052 -515.04441077 944.83749856 -516.12939453 946.5065918 C-518.81336238 950.63555642 -521.49695031 954.7647669 -524.1796875 958.89453125 C-530.57939717 968.74506476 -536.9904827 978.58809791 -543.40917969 988.42626953 C-549.08505363 997.1272293 -554.74796927 1005.83656623 -560.40722656 1014.54833984 C-563.64712004 1019.53531261 -566.88866655 1024.52121112 -570.12988281 1029.50732422 C-572.81367663 1033.63605202 -575.49711015 1037.76501294 -578.1796875 1041.89453125 C-584.57939717 1051.74506476 -590.9904827 1061.58809791 -597.40917969 1071.42626953 C-603.08505363 1080.1272293 -608.74796927 1088.83656623 -614.40722656 1097.54833984 C-617.10404754 1101.69939383 -619.80209214 1105.84965238 -622.5 1110 C-623.58333905 1111.66666295 -624.66667239 1113.33332961 -625.75 1115 C-636.58333333 1131.66666667 -647.41666667 1148.33333333 -658.25 1165 C-659.0541333 1166.23713745 -659.0541333 1166.23713745 -659.87451172 1167.49926758 C-660.95944978 1169.16839052 -662.04441077 1170.83749856 -663.12939453 1172.5065918 C-665.81336238 1176.63555642 -668.49695031 1180.7647669 -671.1796875 1184.89453125 C-677.57939717 1194.74506476 -683.9904827 1204.58809791 -690.40917969 1214.42626953 C-697.80755117 1225.767771 -705.18419346 1237.12337143 -712.55859375 1248.48046875 C-713.14495605 1249.38321533 -713.73131836 1250.28596191 -714.33544922 1251.21606445 C-715.45327698 1252.93705147 -716.57080951 1254.65823029 -717.68798828 1256.37963867 C-720.43237991 1260.60449992 -723.1945704 1264.81540237 -726 1269 C-726.33 1268.34 -726.66 1267.68 -727 1267 C-725.89868164 1264.64697266 -725.89868164 1264.64697266 -724.16015625 1261.6640625 C-723.51723633 1260.5510376 -722.87431641 1259.4380127 -722.21191406 1258.29125977 C-721.4955134 1257.06913174 -720.77904007 1255.8470463 -720.0625 1254.625 C-719.33086023 1253.36368993 -718.60007785 1252.10188217 -717.87011719 1250.83959961 C-716.347235 1248.20769031 -714.82063506 1245.57799022 -713.29150391 1242.94970703 C-710.08109986 1237.42484534 -706.91746839 1231.87339451 -703.75326538 1226.32199097 C-702.08766847 1223.40092663 -700.4186305 1220.48183248 -698.75 1217.5625 C-698.11578125 1216.45261719 -697.4815625 1215.34273437 -696.828125 1214.19921875 C-695.13541667 1211.23697917 -693.44270833 1208.27473958 -691.75 1205.3125 C-691.24782959 1204.43368164 -690.74565918 1203.55486328 -690.22827148 1202.64941406 C-689.24868675 1200.93518123 -688.26903266 1199.22098803 -687.28930664 1197.50683594 C-684.8982546 1193.32320348 -682.50845121 1189.13886698 -680.12109375 1184.953125 C-671.50902965 1169.85859872 -662.82274624 1154.80723038 -654.12792969 1139.76025391 C-644.36784801 1122.86899091 -634.66810069 1105.94399766 -625 1089 C-622.31322789 1084.2912509 -619.62598595 1079.58277082 -616.9375 1074.875 C-616.44021896 1074.00418793 -616.44021896 1074.00418793 -615.93289185 1073.11578369 C-610.53051829 1063.65764373 -605.09394218 1054.21953894 -599.64428711 1044.78857422 C-595.07273082 1036.87237125 -590.53044061 1028.93976686 -586 1021 C-580.85681066 1011.98636803 -575.69224508 1002.98550083 -570.5 994 C-563.30366999 981.54426782 -556.16343152 969.05688904 -549.03369141 956.56298828 C-545.26943409 949.96720797 -541.50010734 943.37432241 -537.73175049 936.78088379 C-534.43794029 931.0176609 -531.14443649 925.25426933 -527.85546875 919.48828125 C-521.88384704 909.0221244 -515.87501103 898.57806189 -509.84741211 888.14404297 C-505.2088093 880.10897366 -500.59805242 872.05830581 -496 864 C-490.85681678 854.98636455 -485.69224506 845.9855008 -480.5 837 C-475.33168998 828.05445617 -470.18568638 819.0964512 -465.0625 810.125 C-464.73105988 809.54461975 -464.39961975 808.9642395 -464.05813599 808.36627197 C-461.70463724 804.24463022 -459.35219747 800.12238449 -457 796 C-454.31322789 791.2912509 -451.62598595 786.58277082 -448.9375 781.875 C-448.60597931 781.29445862 -448.27445862 780.71391724 -447.93289185 780.11578369 C-442.53263571 770.66135078 -437.09786004 761.22713853 -431.65087891 751.79956055 C-427.0168143 743.77428624 -422.4080468 735.73486651 -417.8125 727.6875 C-417.30567184 726.80001068 -417.30567184 726.80001068 -416.78860474 725.89459229 C-413.98180273 720.97912984 -411.17659992 716.06275541 -408.37207031 711.14599609 C-401.89606771 699.79323495 -395.38525427 688.46131369 -388.84741211 677.14404297 C-384.2088093 669.10897366 -379.59805242 661.05830581 -375 653 C-369.85681678 643.98636455 -364.69224506 634.9855008 -359.5 626 C-354.33168998 617.05445617 -349.18568638 608.0964512 -344.0625 599.125 C-343.73105988 598.54461975 -343.39961975 597.9642395 -343.05813599 597.36627197 C-340.70463724 593.24463022 -338.35219747 589.12238449 -336 585 C-333.31322789 580.2912509 -330.62598595 575.58277082 -327.9375 570.875 C-327.60597931 570.29445862 -327.27445862 569.71391724 -326.93289185 569.11578369 C-321.53263571 559.66135078 -316.09786004 550.22713853 -310.65087891 540.79956055 C-306.0168143 532.77428624 -301.4080468 524.73486651 -296.8125 516.6875 C-296.30567184 515.80001068 -296.30567184 515.80001068 -295.78860474 514.89459229 C-292.98180273 509.97912984 -290.17659992 505.06275541 -287.37207031 500.14599609 C-280.89606771 488.79323495 -274.38525427 477.46131369 -267.84741211 466.14404297 C-263.2088093 458.10897366 -258.59805242 450.05830581 -254 442 C-248.85681678 432.98636455 -243.69224506 423.9855008 -238.5 415 C-231.30366999 402.54426782 -224.16343152 390.05688904 -217.03369141 377.56298828 C-213.26943409 370.96720797 -209.50010734 364.37432241 -205.73175049 357.78088379 C-202.43794029 352.0176609 -199.14443649 346.25426933 -195.85546875 340.48828125 C-189.792324 329.86172725 -183.69133131 319.25757634 -177.57275391 308.6628418 C-171.68293828 298.46021962 -165.83585874 288.2335527 -160 278 C-149.78566798 260.08851351 -139.49241247 242.22323374 -129.16796875 224.375 C-122.69097844 213.17189451 -116.25795066 201.94691195 -109.90698242 190.671875 C-105.25921858 182.43179027 -100.53548644 174.23673667 -95.79907227 166.04736328 C-90.80927652 157.41591668 -85.86249747 148.76063663 -80.92520142 140.09912109 C-76.29178723 131.97394984 -71.60642182 123.88100847 -66.875 115.8125 C-61.45243466 106.56323869 -56.18670763 97.23386318 -50.97045898 87.86694336 C-47.31579634 81.31533601 -43.58052818 74.82236145 -39.74804688 68.37353516 C-36.33166755 62.60804897 -33.03472927 56.77881417 -29.75 50.9375 C-24.55702132 41.70613858 -19.2612575 32.53941997 -13.90844727 23.39990234 C-10.00525041 16.73417901 -6.1520406 10.0433811 -2.35546875 3.31640625 C-1 1 -1 1 0 0 Z " fill="#C39529" transform="translate(898,952)"/>
<path d="M0 0 C0.66 0.33 1.32 0.66 2 1 C-9.93166953 8.78847572 -21.90355294 16.51149947 -33.90991211 24.18432617 C-42.62784946 29.75705289 -51.32041932 35.36778206 -60 41 C-70.89454137 48.06951564 -81.81977946 55.08948774 -92.76171875 62.08544922 C-101.52810262 67.69257143 -110.2706349 73.33547673 -119 79 C-129.90033608 86.07327585 -140.83115335 93.09735064 -151.77929688 100.09643555 C-158.35831244 104.30407308 -164.92418643 108.5308959 -171.4753418 112.78173828 C-177.73700038 116.84006777 -184.02477542 120.85721209 -190.3125 124.875 C-198.69985771 130.23526578 -207.06358902 135.62929348 -215.40161133 141.06591797 C-223.14613504 146.10918774 -230.93425433 151.08345701 -238.72265625 156.05859375 C-245.16673333 160.17805897 -251.59330744 164.32265669 -258 168.5 C-266.61317961 174.1157264 -275.26926399 179.66280587 -283.93359375 185.19921875 C-289.80031698 188.9490086 -295.6591621 192.71002216 -301.5 196.5 C-308.41802195 200.98893641 -315.36328625 205.43452767 -322.3125 209.875 C-330.69985771 215.23526578 -339.06358902 220.62929348 -347.40161133 226.06591797 C-355.14613504 231.10918774 -362.93425433 236.08345701 -370.72265625 241.05859375 C-377.16673333 245.17805897 -383.59330744 249.32265669 -390 253.5 C-398.6051802 259.11051085 -407.25321854 264.65244597 -415.90942383 270.18383789 C-422.01298822 274.08510959 -428.1082615 277.99843042 -434.1875 281.9375 C-435.18861816 282.58513306 -435.18861816 282.58513306 -436.20996094 283.24584961 C-439.50542174 285.37871318 -442.79513225 287.5198654 -446.078125 289.671875 C-447.36456622 290.51044291 -448.65102379 291.34898576 -449.9375 292.1875 C-450.52362061 292.57478271 -451.10974121 292.96206543 -451.71362305 293.36108398 C-455.77410343 296 -455.77410343 296 -458 296 C-458.0127393 294.39974738 -458.02416217 292.79948431 -458.03515625 291.19921875 C-458.04264893 290.16853271 -458.0501416 289.13784668 -458.05786133 288.07592773 C-458.06097971 285.79803373 -458.04355371 283.52002788 -458.0065918 281.24243164 C-457.92515515 275.94681837 -457.91498413 270.90281676 -458.796875 265.671875 C-459.4737599 260.64431371 -459.77339079 256.43460452 -457 252 C-450.34825062 246.23577524 -442.09512926 242.63473635 -434.17834473 238.93673706 C-427.60887381 235.86740515 -421.30821093 232.39467314 -414.99700928 228.83081055 C-411.98938467 227.13825451 -408.96541148 225.47555882 -405.94140625 223.8125 C-405.06270874 223.32855774 -405.06270874 223.32855774 -404.16625977 222.83483887 C-398.3369625 219.62770981 -392.48171498 216.46917498 -386.625 213.3125 C-377.94598709 208.63416568 -369.35139829 203.82327002 -360.78369141 198.94458008 C-352.49189616 194.23997037 -344.10239548 189.72917074 -335.69628906 185.23291016 C-327.57731108 180.87871265 -319.54776014 176.38418957 -311.54296875 171.82421875 C-303.74682742 167.39385981 -295.87171806 163.12147825 -287.97558594 158.87255859 C-281.14289131 155.18617929 -274.37081169 151.40528652 -267.625 147.5625 C-258.39080842 142.30396449 -249.06207568 137.24220387 -239.69189453 132.23071289 C-232.57306976 128.41316509 -225.51758627 124.50031617 -218.5 120.5 C-209.30818399 115.26028241 -200.0209383 110.22017125 -190.69140625 105.23046875 C-183.57275822 101.41297736 -176.51742803 97.50022597 -169.5 93.5 C-160.30818399 88.26028241 -151.0209383 83.22017125 -141.69140625 78.23046875 C-134.57275822 74.41297736 -127.51742803 70.50022597 -120.5 66.5 C-111.30818399 61.26028241 -102.0209383 56.22017125 -92.69140625 51.23046875 C-85.57275822 47.41297736 -78.51742803 43.50022597 -71.5 39.5 C-63.39524334 34.87995147 -55.22640657 30.39973285 -47 26 C-37.53424694 20.93730014 -28.14743047 15.75477147 -18.82226562 10.4375 C-16.21801482 8.95267103 -13.6091015 7.4762848 -11 6 C-9.99952637 5.42507813 -8.99905273 4.85015625 -7.96826172 4.2578125 C-6.97713379 3.69835937 -5.98600586 3.13890625 -4.96484375 2.5625 C-4.06241943 2.04816406 -3.15999512 1.53382813 -2.23022461 1.00390625 C-1.12626343 0.50697266 -1.12626343 0.50697266 0 0 Z " fill="#AF751B" transform="translate(2218,961)"/>
<path d="M0 0 C0.66 0.33 1.32 0.66 2 1 C-2.95 4.3 -7.9 7.6 -13 11 C-13.33 10.34 -13.66 9.68 -14 9 C-11.50175511 6.18841591 -8.721524 4.55162169 -5.4375 2.75 C-4.46683594 2.20859375 -3.49617188 1.6671875 -2.49609375 1.109375 C-1.67238281 0.74328125 -0.84867188 0.3771875 0 0 Z " fill="#B3801F" transform="translate(2218,961)"/>
</svg>
